<?xml version="1.0" standalone="no"?>
<!DOCTYPE svg PUBLIC "-//W3C//DTD SVG 20010904//EN"
 "http://www.w3.org/TR/2001/REC-SVG-20010904/DTD/svg10.dtd">
<svg id="logo-icon" version="1.0" xmlns="http://www.w3.org/2000/svg"
 width="458.000000pt" height="171.000000pt" viewBox="0 0 458.000000 171.000000"
 preserveAspectRatio="xMidYMid meet">

<g transform="translate(0.000000,171.000000) scale(0.100000,-0.100000)"
fill="#800080" stroke="none">
<path fill="#800080" d="M1285 1603 c-172 -72 -243 -166 -370 -483 l-90 -225 -105 -22 c-258
-56 -334 -77 -362 -101 -60 -51 -19 -76 117 -70 70 3 115 12 203 42 62 21 115
36 117 35 2 -2 -15 -69 -36 -149 -122 -443 -126 -530 -29 -530 60 0 96 38 119
125 10 39 26 87 35 109 30 72 110 180 208 282 97 100 161 145 179 127 6 -6 -5
-53 -27 -119 -19 -60 -44 -145 -54 -189 -41 -174 -36 -247 21 -300 27 -27 37
-30 92 -30 46 1 78 8 123 29 l61 27 37 -25 c114 -77 234 -55 373 67 l56 49 15
-29 c21 -41 72 -92 114 -114 96 -49 319 3 463 108 l39 29 31 -45 c19 -29 47
-54 80 -71 43 -22 62 -25 150 -25 115 1 183 22 261 81 l46 35 43 -40 c61 -57
101 -74 165 -74 184 2 290 176 235 386 -15 58 -62 160 -96 209 -11 14 -19 30
-19 35 0 5 36 26 79 47 163 75 220 197 118 251 -34 18 -39 19 -64 5 -23 -13
-29 -25 -33 -61 -7 -60 -29 -92 -93 -134 l-52 -35 -45 22 c-58 29 -179 37
-214 15 -32 -22 -38 -52 -15 -81 10 -13 19 -29 19 -35 0 -5 -25 -95 -55 -198
-50 -168 -60 -192 -93 -227 -72 -75 -178 -105 -257 -72 -37 16 -50 34 -60 87
-6 35 -2 41 81 140 252 300 383 505 450 704 32 95 38 123 38 205 1 78 -3 101
-19 128 -31 52 -72 72 -147 72 -253 0 -423 -335 -492 -973 -16 -148 -9 -137
-151 -252 -106 -86 -193 -135 -241 -135 -94 0 -142 58 -128 154 6 47 13 58 98
146 300 314 496 659 499 879 1 136 -45 184 -173 179 -145 -6 -277 -101 -373
-269 -79 -138 -143 -396 -177 -709 -6 -58 -13 -119 -16 -137 -10 -71 -192
-243 -256 -243 -34 0 -83 23 -91 43 -3 8 29 53 73 105 153 178 202 270 204
383 1 88 -16 109 -87 109 -103 0 -186 -69 -258 -214 -42 -86 -89 -253 -89
-317 0 -33 -5 -42 -37 -64 -78 -53 -109 -22 -100 100 4 52 18 103 52 190 51
131 65 207 46 254 -18 41 -57 55 -144 49 -93 -6 -172 -45 -262 -129 -38 -36
-69 -58 -74 -53 -5 5 2 43 15 84 l23 75 53 19 c174 61 420 207 506 301 73 79
95 132 100 235 3 75 1 90 -20 130 -16 29 -41 55 -72 74 -42 26 -59 30 -134 33
-65 2 -97 -1 -127 -14z m198 -124 c35 -43 9 -190 -47 -264 -51 -66 -361 -275
-409 -275 -24 0 -20 18 33 153 85 212 201 364 308 403 46 17 92 10 115 -17z
m1668 -51 c26 -49 -19 -213 -94 -343 -22 -38 -85 -140 -139 -226 -138 -220
-152 -227 -124 -69 45 255 130 511 195 583 68 76 138 100 162 55z m-626 -8
c38 -41 13 -156 -69 -320 -77 -156 -251 -401 -290 -408 -17 -4 -18 1 -12 58
15 131 94 398 152 512 28 56 94 138 127 159 41 24 69 24 92 -1z m-748 -729
c-8 -71 -52 -156 -112 -218 -60 -62 -80 -68 -71 -20 15 80 139 287 172 287 14
0 16 -8 11 -49z m1645 -119 c57 -115 49 -265 -16 -307 -21 -14 -31 -15 -60 -5
-85 28 -107 130 -61 277 15 49 34 101 42 117 l15 28 24 -23 c14 -13 39 -52 56
-87z"/>
<path fill="#800080"  d="M215 995 c-16 -15 -25 -36 -25 -55 0 -35 38 -80 68 -80 11 0 31 9 46
21 20 16 26 29 26 60 0 73 -66 104 -115 54z"/>
<path fill="#800080"  d="M3590 705 c0 -19 5 -25 23 -25 12 0 29 -5 37 -10 8 -5 58 -134 111
-287 124 -361 114 -358 213 -68 40 116 75 219 80 230 6 16 18 -9 52 -110 105
-312 114 -335 139 -335 17 0 25 7 30 28 3 15 43 142 87 284 l81 256 33 7 c28
5 34 11 34 30 l0 25 -110 0 c-110 0 -110 0 -110 -24 0 -20 6 -25 40 -31 22 -4
41 -10 43 -13 2 -4 -22 -97 -54 -207 -31 -110 -59 -193 -63 -185 -15 37 -136
385 -136 391 0 4 20 10 45 13 39 6 45 10 45 32 l0 24 -130 0 -130 0 0 -24 c0
-22 6 -26 44 -31 l44 -7 -65 -196 c-36 -109 -68 -200 -72 -204 -5 -6 -92 255
-128 383 -4 13 5 18 41 23 40 6 46 10 46 32 l0 24 -135 0 -135 0 0 -25z"/>
<path fill="#800080"  d="M203 675 c-56 -26 -73 -39 -73 -54 0 -20 10 -25 65 -33 19 -3 20 -11
20 -218 l0 -214 -42 -9 c-33 -6 -43 -13 -43 -28 0 -18 8 -19 130 -19 123 0
130 1 130 20 0 13 -9 22 -27 26 -16 3 -34 7 -40 10 -10 2 -13 67 -13 279 0
317 10 295 -107 240z"/>
</g>
</svg>
